<svg width="83" height="83" viewBox="0 0 83 83" fill="none" xmlns="http://www.w3.org/2000/svg">
<rect width="83" height="83" fill="#3347FF" fill-opacity="0.1"/>
<path d="M63.7684 20.83C63.7684 19.7333 62.4842 19.1426 61.6495 19.854L54.3809 26.0593C53.7799 26.573 53.7799 27.5002 54.3809 28.0138L61.6495 34.2191C62.4842 34.928 63.7684 34.3347 63.7684 33.2405V20.83Z" fill="#3347FF"/>
<path d="M17.5371 64.0613C17.5371 65.158 18.8213 65.7487 19.656 65.0373L26.9246 58.832C27.5256 58.3184 27.5256 57.3912 26.9246 56.8775L19.656 50.6722C18.8213 49.9634 17.5371 50.5541 17.5371 51.6508V64.0613Z" fill="#3347FF"/>
<path opacity="0.35" d="M49.6424 70.431C58.8625 70.431 66.337 62.9565 66.337 53.7363C66.337 44.5162 58.8625 37.0417 49.6424 37.0417C40.4222 37.0417 32.9478 44.5162 32.9478 53.7363C32.9478 62.9565 40.4222 70.431 49.6424 70.431Z" fill="#3347FF"/>
<path d="M56.0634 57.6301C56.0634 54.2115 53.5361 53.4359 53.1945 53.3486V53.2998C55.4829 51.9924 55.4495 50.4052 55.4495 49.329C55.4495 46.6476 53.9033 45.122 51.3555 44.7573C51.3581 44.7264 51.3735 44.6982 51.3735 44.6674C51.3735 44.3848 51.3735 43.4371 51.3735 43.1546C51.3735 42.3198 50.6954 41.6418 49.8607 41.6418C49.0259 41.6418 48.3479 42.3198 48.3479 43.1546C48.3479 43.4345 48.3479 44.3848 48.3479 44.6674H47.0534C45.7333 44.6674 44.6622 45.7384 44.6597 47.0611V60.4168C44.6597 61.7369 45.7307 62.8105 47.0534 62.8105H48.3479C48.3479 63.0931 48.3479 64.0408 48.3479 64.3233C48.3479 65.1581 49.0259 65.8361 49.8607 65.8361C50.6954 65.8361 51.3735 65.1581 51.3735 64.3233C51.3735 64.0408 51.3735 63.0931 51.3735 62.8105C51.3735 62.79 51.3632 62.772 51.3606 62.7515C54.9821 62.4484 56.0634 59.8826 56.0634 57.6301ZM49.8632 48.0474C50.8649 48.0474 51.8383 48.4763 51.8383 49.9814C51.8383 51.2707 51.0396 51.9924 49.8889 51.9924H48.4789V48.0474H49.8632ZM50.0199 59.4202H48.4814V54.9898H49.9685C51.561 54.9898 52.1722 56.1173 52.1722 57.2577C52.1697 58.3903 51.5276 59.4228 50.0199 59.4202Z" fill="#3347FF"/>
<path d="M31.6634 14.1933C22.4428 14.1933 14.9688 21.6673 14.9688 30.8879C14.9688 40.1085 22.4428 47.5825 31.6634 47.5825C40.8839 47.5825 48.358 40.1085 48.358 30.8879C48.358 21.6673 40.8839 14.1933 31.6634 14.1933ZM32.3953 40.0134V41.1204C32.3953 41.8139 31.8329 42.3764 31.1394 42.3764C30.4459 42.3764 29.8835 41.8139 29.8835 41.1204V40.2369C28.8381 40.1264 27.97 39.8157 27.2611 39.4124C26.4161 38.9321 26.1952 37.8123 26.7423 37.011L26.7937 36.9365C27.2688 36.243 28.1909 35.9554 28.9357 36.3457C29.3723 36.5743 29.9117 36.7516 30.5358 36.7516C31.9407 36.7516 32.1976 35.565 32.1976 35.0205C32.1976 32.1901 26.542 33.1738 26.542 27.7288C26.542 25.2682 27.9083 23.3445 30.0093 22.6433V21.6237C30.0093 20.9302 30.5718 20.3677 31.2652 20.3677C31.9587 20.3677 32.5212 20.9302 32.5212 21.6237V22.3762C33.3225 22.4533 33.9826 22.6433 34.5117 22.8822C35.4774 23.3163 35.7933 24.5337 35.1821 25.3967C34.7018 26.0747 33.808 26.3881 33.0554 26.049C32.7344 25.9052 32.3568 25.8025 31.9305 25.8025C31.499 25.8025 30.2456 25.9694 30.2456 27.5618C30.2456 30.2663 35.9731 29.5575 35.9731 34.7456C35.9706 37.1805 34.7172 39.2994 32.3953 40.0134Z" fill="#3347FF"/>
<path opacity="0.35" d="M35.9705 34.7456C35.9705 29.5575 30.243 30.2664 30.243 27.5618C30.243 25.9694 31.4964 25.8025 31.9279 25.8025C32.3542 25.8025 32.7318 25.9026 33.0528 26.049C33.8054 26.3881 34.6992 26.0747 35.1769 25.3992C35.7882 24.5337 35.4723 23.3188 34.5065 22.8848C33.9774 22.6459 33.3174 22.4533 32.516 22.3762V21.6237C32.516 20.9302 31.9535 20.3677 31.2601 20.3677C30.5666 20.3677 30.0041 20.9302 30.0041 21.6237V22.6408C27.9032 23.3419 26.5368 25.2657 26.5368 27.7262C26.5368 33.1712 32.1924 32.1875 32.1924 35.0179C32.1924 35.5624 31.9356 36.749 30.5307 36.749C29.9065 36.749 29.3697 36.5743 28.9305 36.3432C28.1857 35.9528 27.2636 36.2404 26.7885 36.9339L26.7371 37.0084C26.1901 37.8097 26.4109 38.9321 27.2559 39.4099C27.9648 39.8131 28.8329 40.1264 29.8783 40.2343V41.1153C29.8783 41.8087 30.4408 42.3712 31.1342 42.3712C31.8277 42.3712 32.3902 41.8087 32.3902 41.1153V40.0083C34.7171 39.2994 35.9705 37.1805 35.9705 34.7456Z" fill="#3347FF"/>
</svg>
