<svg width="83" height="83" viewBox="0 0 83 83" fill="none" xmlns="http://www.w3.org/2000/svg">
<rect width="83" height="83" fill="#3347FF" fill-opacity="0.1"/>
<path opacity="0.35" d="M59.4723 20.938C59.4723 16.4832 55.8617 12.8726 51.4069 12.8726H29.8991C25.4444 12.8726 21.8337 16.4832 21.8337 20.938V63.9534C21.8337 68.4082 25.4444 72.0188 29.8991 72.0188H51.4069C55.8617 72.0188 59.4723 68.4082 59.4723 63.9534V20.938Z" fill="#3347FF"/>
<path d="M40.6531 66.6421C42.8803 66.6421 44.6858 64.8366 44.6858 62.6094C44.6858 60.3822 42.8803 58.5767 40.6531 58.5767C38.4259 58.5767 36.6204 60.3822 36.6204 62.6094C36.6204 64.8366 38.4259 66.6421 40.6531 66.6421Z" fill="#3347FF"/>
</svg>
