<svg width="83" height="83" viewBox="0 0 83 83" fill="none" xmlns="http://www.w3.org/2000/svg">
<rect width="83" height="83" fill="#3347FF" fill-opacity="0.1"/>
<g clip-path="url(#clip0_1106:39999)">
<path opacity="0.35" d="M54.1261 28.9723H38.2953C38.3672 28.6086 38.4076 28.2336 38.4076 27.8496C38.4076 24.7486 35.8949 22.2358 32.7938 22.2358C29.6928 22.2358 27.1801 24.7486 27.1801 27.8496C27.1801 28.2336 27.2205 28.6086 27.2924 28.9723H27.1801C23.4593 28.9723 20.4436 31.988 20.4436 35.7088V55.9183C20.4436 59.6391 23.4593 62.6548 27.1801 62.6548H54.1261C57.8469 62.6548 60.8626 59.6391 60.8626 55.9183V35.7088C60.8626 31.988 57.8469 28.9723 54.1261 28.9723Z" fill="#3347FF"/>
<path d="M53.0033 49.1818C54.8635 49.1818 56.3715 47.6738 56.3715 45.8136C56.3715 43.9533 54.8635 42.4453 53.0033 42.4453C51.143 42.4453 49.635 43.9533 49.635 45.8136C49.635 47.6738 51.143 49.1818 53.0033 49.1818Z" fill="#3347FF"/>
<path d="M48.5122 15.4995C45.4112 15.4995 42.8984 18.0122 42.8984 21.1133C42.8984 24.2143 45.4112 26.727 48.5122 26.727C51.6132 26.727 54.1259 24.2143 54.1259 21.1133C54.1259 18.0122 51.6132 15.4995 48.5122 15.4995Z" fill="#3347FF"/>
<path d="M33.3979 28.9722H27.1801C26.4435 28.9722 25.7474 29.1204 25.085 29.3382C24.993 28.8555 24.9346 28.3592 24.9346 27.8495C24.9346 23.5089 28.4533 19.9902 32.7938 19.9902C37.1344 19.9902 40.6531 23.5089 40.6531 27.8495C40.6531 28.2335 40.5924 28.6017 40.5385 28.9722H35.0101L33.4001 28.961C33.3979 28.9722 33.3979 28.9677 33.3979 28.9722Z" fill="#3347FF"/>
</g>
<defs>
<clipPath id="clip0_1106:39999">
<rect width="53.892" height="53.892" fill="white" transform="translate(13.707 15.4995)"/>
</clipPath>
</defs>
</svg>
