<svg width="83" height="83" viewBox="0 0 83 83" fill="none" xmlns="http://www.w3.org/2000/svg">
<rect width="83" height="83" fill="#3347FF" fill-opacity="0.1"/>
<path opacity="0.35" d="M40.6529 68.7164C55.1621 68.7164 66.9241 56.9543 66.9241 42.4451C66.9241 27.9359 55.1621 16.1738 40.6529 16.1738C26.1436 16.1738 14.3816 27.9359 14.3816 42.4451C14.3816 56.9543 26.1436 68.7164 40.6529 68.7164Z" fill="#3347FF"/>
<path d="M51.4321 49.2155C51.4321 53.3716 49.3751 58.2081 42.0822 58.2081H35.7745C33.4784 58.2081 31.6157 56.3455 31.6157 54.0494V30.8414C31.6183 28.5452 33.4784 26.6826 35.7745 26.6826H41.0576C46.7821 26.6826 50.3629 29.3991 50.3629 34.7873C50.3629 36.6578 50.4207 39.4189 46.4458 41.6888V41.7755C47.0422 41.9278 51.4321 43.2729 51.4321 49.2155ZM44.0893 35.9222C44.0893 33.3056 42.3974 32.5621 40.6583 32.5621H38.2545V39.4189H40.703C42.6996 39.4189 44.0893 38.1605 44.0893 35.9222ZM44.6673 48.5666C44.6673 46.5831 43.6033 44.6259 40.8369 44.6259H38.2545V52.326H40.9289C43.5481 52.3286 44.6673 50.5343 44.6673 48.5666Z" fill="#3347FF"/>
<path d="M43.2801 24.0553C43.2801 22.6052 42.1032 21.4282 40.653 21.4282C39.2028 21.4282 38.0259 22.6052 38.0259 24.0553C38.0259 24.544 38.0259 26.1938 38.0259 26.6825C38.0259 28.1326 39.2028 29.3096 40.653 29.3096C42.1032 29.3096 43.2801 28.1326 43.2801 26.6825C43.2801 26.1938 43.2801 24.544 43.2801 24.0553Z" fill="#3347FF"/>
<path d="M43.2801 58.2082C43.2801 56.758 42.1032 55.5811 40.653 55.5811C39.2028 55.5811 38.0259 56.758 38.0259 58.2082C38.0259 58.6968 38.0259 60.3467 38.0259 60.8353C38.0259 62.2855 39.2028 63.4624 40.653 63.4624C42.1032 63.4624 43.2801 62.2855 43.2801 60.8353C43.2801 60.3467 43.2801 58.6968 43.2801 58.2082Z" fill="#3347FF"/>
</svg>
