<svg width="83" height="83" viewBox="0 0 83 83" fill="none" xmlns="http://www.w3.org/2000/svg">
<rect width="83" height="83" fill="#3347FF" fill-opacity="0.1"/>
<path opacity="0.35" d="M55.2686 64.9213H25.7397C21.6622 64.9213 18.3574 61.6165 18.3574 57.5391V28.0101H55.2686C59.3461 28.0101 62.6508 31.3149 62.6508 35.3924V57.5391C62.6508 61.6165 59.3461 64.9213 55.2686 64.9213Z" fill="#3347FF"/>
<path d="M54.0383 50.157C56.0768 50.157 57.7294 48.5044 57.7294 46.4659C57.7294 44.4274 56.0768 42.7748 54.0383 42.7748C51.9997 42.7748 50.3472 44.4274 50.3472 46.4659C50.3472 48.5044 51.9997 50.157 54.0383 50.157Z" fill="#3347FF"/>
<path d="M18.3574 28.0102C18.3574 23.9327 21.6622 20.6279 25.7397 20.6279H47.8864C51.9638 20.6279 55.2686 23.9327 55.2686 28.0102H18.3574Z" fill="#3347FF"/>
</svg>
