<svg width="83" height="83" viewBox="0 0 83 83" fill="none" xmlns="http://www.w3.org/2000/svg">
<rect width="83" height="83" fill="#3347FF" fill-opacity="0.1"/>
<path opacity="0.35" d="M63.1975 53.8409H61.1645V36.748C61.1645 29.8356 55.5421 24.2132 48.6297 24.2132C41.7174 24.2132 36.0949 29.8356 36.0949 36.748V48.1433C36.0949 50.0281 34.5611 51.5619 32.6763 51.5619C30.7916 51.5619 29.2578 50.0281 29.2578 48.1433V33.3294H31.2907C32.5214 33.3294 33.139 31.8458 32.2729 30.9706L26.1218 24.7602C25.3378 23.9693 24.0615 23.9693 23.2798 24.7602L17.1263 30.9706C16.2603 31.8458 16.8802 33.3294 18.1086 33.3294H20.1415V48.1433C20.1415 55.0557 25.764 60.6781 32.6763 60.6781C39.5887 60.6781 45.2111 55.0557 45.2111 48.1433V36.748C45.2111 34.8632 46.745 33.3294 48.6297 33.3294C50.5145 33.3294 52.0483 34.8632 52.0483 36.748V53.8409H50.0154C48.7847 53.8409 48.1671 55.3246 49.0331 56.1998L55.1843 62.4102C55.9683 63.201 57.2446 63.201 58.0263 62.4102L64.1775 56.1998C65.0458 55.3246 64.4259 53.8409 63.1975 53.8409Z" fill="#3347FF"/>
<path d="M63.1979 53.8409H61.165V36.748C61.165 29.8356 55.5425 24.2132 48.6302 24.2132C48.6302 24.2132 52.0488 28.7713 52.0488 36.748V53.8409H50.0158C48.7851 53.8409 48.1675 55.3246 49.0336 56.1997L55.1847 62.4102C55.9687 63.201 57.245 63.201 58.0267 62.4102L64.1779 56.1997C65.0462 55.3246 64.4263 53.8409 63.1979 53.8409Z" fill="#3347FF"/>
</svg>
