<svg width="83" height="83" viewBox="0 0 83 83" fill="none" xmlns="http://www.w3.org/2000/svg">
<rect width="83" height="83" fill="#3347FF" fill-opacity="0.1"/>
<path opacity="0.35" d="M55.9778 25.6489H25.0313C21.3686 25.6489 18.3999 28.6176 18.3999 32.2803V43.3326C18.3999 46.9954 21.3686 49.964 25.0313 49.964H55.9778C59.6405 49.964 62.6092 46.9954 62.6092 43.3326V32.2803C62.6092 28.6176 59.6405 25.6489 55.9778 25.6489Z" fill="#3347FF"/>
<path d="M40.5047 44.4379C42.3359 44.4379 43.8204 42.9534 43.8204 41.1222C43.8204 39.291 42.3359 37.8065 40.5047 37.8065C38.6735 37.8065 37.189 39.291 37.189 41.1222C37.189 42.9534 38.6735 44.4379 40.5047 44.4379Z" fill="#3347FF"/>
<path d="M55.9778 49.964H25.0313C21.3686 49.964 18.3999 46.9954 18.3999 43.3326V56.5954C18.3999 60.2582 21.3686 63.2268 25.0313 63.2268H55.9778C59.6405 63.2268 62.6092 60.2582 62.6092 56.5954V43.3326C62.6092 46.9954 59.6405 49.964 55.9778 49.964Z" fill="#3347FF"/>
<path d="M42.7149 21.228C41.9059 21.228 39.103 21.228 38.294 21.228C35.8514 21.228 33.873 23.2064 33.873 25.649H47.1358C47.1358 23.2064 45.1575 21.228 42.7149 21.228Z" fill="#3347FF"/>
</svg>
