<svg width="83" height="83" viewBox="0 0 83 83" fill="none" xmlns="http://www.w3.org/2000/svg">
<rect width="83" height="83" fill="#3347FF" fill-opacity="0.1"/>
<path opacity="0.35" d="M58.3367 62.3398H22.9693C21.7469 62.3398 20.7588 61.3517 20.7588 60.1293V24.7619C20.7588 23.5395 21.7469 22.5514 22.9693 22.5514C24.1916 22.5514 25.1797 23.5395 25.1797 24.7619V57.9189H58.3367C59.5591 57.9189 60.5472 58.9069 60.5472 60.1293C60.5472 61.3517 59.5591 62.3398 58.3367 62.3398Z" fill="#3347FF"/>
<path d="M38.4426 49.0771C37.8767 49.0771 37.3108 48.8605 36.8798 48.4295L31.8112 43.3609L26.7426 48.4295C25.8783 49.2938 24.4813 49.2938 23.617 48.4295C22.7527 47.5652 22.7527 46.1682 23.617 45.3039L30.2484 38.6725C31.1127 37.8082 32.5097 37.8082 33.374 38.6725L38.4426 43.7411L43.5112 38.6725C44.3755 37.8082 45.7725 37.8082 46.6368 38.6725L49.4949 41.5306L54.5635 36.462C55.4278 35.5977 56.8248 35.5977 57.6891 36.462C58.5534 37.3263 58.5534 38.7233 57.6891 39.5876L51.0577 46.219C50.1934 47.0833 48.7964 47.0833 47.9321 46.219L45.074 43.3609L40.0054 48.4295C39.5743 48.8605 39.0085 49.0771 38.4426 49.0771Z" fill="#3347FF"/>
</svg>
