<svg width="48" height="48" viewBox="0 0 48 48" fill="none" xmlns="http://www.w3.org/2000/svg">
<rect width="48" height="48" fill="#050F26"/>
<rect width="48" height="48" fill="url(#paint0_linear_15970_29020)"/>
<path fill-rule="evenodd" clip-rule="evenodd" d="M33.7259 16.4408C33.7259 19.2829 30.2247 20.8816 24.0003 20.8816C17.7758 20.8816 14.2746 19.2829 14.2746 16.4408C14.2746 13.5987 17.7758 12 24.0003 12C30.2247 12 33.7259 13.5987 33.7259 16.4408ZM32.0874 21.6762C30.0286 22.6163 27.2418 23.0244 24.0003 23.0244C20.7588 23.0244 17.9719 22.6163 15.9132 21.6762C15.1535 21.3294 14.4543 20.8862 13.8692 20.3443C13.7227 22.0492 13.6767 23.6877 13.7418 25.3426C14.0889 25.6461 14.5623 26.0056 15.1822 26.3692C16.8589 27.3527 19.6522 28.3926 24.0004 28.3926C28.3486 28.3926 31.142 27.3527 32.8187 26.3692C33.4383 26.0057 33.9116 25.6464 34.2587 25.3429C34.3239 23.6879 34.2779 22.0492 34.1315 20.3442C33.5464 20.8862 32.847 21.3293 32.0874 21.6762ZM14.3278 30.7122C14.174 29.8304 14.0503 28.9738 13.9552 28.1326C14.0022 28.1609 14.0497 28.1892 14.098 28.2175C16.1219 29.4048 19.2931 30.5355 24.0004 30.5355C28.7078 30.5355 31.879 29.4048 33.9028 28.2175C33.951 28.1893 33.9983 28.1611 34.0451 28.1329C33.95 28.9741 33.8262 29.8306 33.6724 30.7124C33.5164 31.6068 33.1619 32.5949 32.3584 33.3157C31.0911 34.4526 28.5209 35.9996 24.0001 35.9996C19.4795 35.9996 16.9094 34.4528 15.6419 33.3159C14.8383 32.595 14.4838 31.6068 14.3278 30.7122Z" fill="url(#paint1_linear_15970_29020)"/>
<defs>
<linearGradient id="paint0_linear_15970_29020" x1="24" y1="0" x2="24" y2="48" gradientUnits="userSpaceOnUse">
<stop stop-color="#122465"/>
<stop offset="1" stop-color="#122465" stop-opacity="0"/>
</linearGradient>
<linearGradient id="paint1_linear_15970_29020" x1="24.0003" y1="12" x2="24.0003" y2="35.9996" gradientUnits="userSpaceOnUse">
<stop stop-color="#DEE8FF"/>
<stop offset="1" stop-color="#608EFF"/>
</linearGradient>
</defs>
</svg>
