<svg width="48" height="48" viewBox="0 0 48 48" fill="none" xmlns="http://www.w3.org/2000/svg">
<rect width="48" height="48" fill="#050F26"/>
<rect width="48" height="48" fill="url(#paint0_linear_15970_29189)"/>
<g clip-path="url(#clip0_15970_29189)">
<path fill-rule="evenodd" clip-rule="evenodd" d="M15.1492 15.1492C17.2497 13.0488 20.2808 12 24 12C27.7192 12 30.7503 13.0488 32.8507 15.1492C34.9512 17.2497 36 20.2808 36 24C36 27.7192 34.9512 30.7503 32.8507 32.8507C30.7503 34.9512 27.7192 36 24 36C20.2808 36 17.2497 34.9512 15.1492 32.8507C13.0488 30.7503 12 27.7192 12 24C12 20.2808 13.0488 17.2497 15.1492 15.1492ZM25.3223 17.8146C25.3223 17.2229 24.8427 16.7432 24.2509 16.7432C23.6592 16.7432 23.1795 17.2229 23.1795 17.8146V18.9493C21.4617 19.3702 20.4209 20.655 20.4209 22.1549C20.4209 22.6997 20.5401 23.2017 20.802 23.6391C21.0629 24.075 21.4235 24.3765 21.7962 24.5878C22.4503 24.9587 23.265 25.1088 23.8666 25.2196L23.9606 25.2369C24.6771 25.3698 25.1395 25.4708 25.4449 25.65C25.5701 25.7234 25.6295 25.79 25.6642 25.8497C25.6987 25.909 25.748 26.0291 25.748 26.271C25.748 26.2759 25.7479 26.2971 25.7236 26.3415C25.6973 26.3896 25.6434 26.4619 25.5429 26.5468C25.337 26.7208 24.9982 26.8933 24.5593 26.9898C23.6751 27.1842 22.6446 27.0213 21.9026 26.3442C21.4655 25.9453 20.7878 25.9763 20.389 26.4134C19.9901 26.8504 20.0211 27.5281 20.4581 27.927C21.2709 28.6687 22.2349 29.0469 23.1795 29.1658V30.1851C23.1795 30.7769 23.6592 31.2566 24.2509 31.2566C24.8427 31.2566 25.3223 30.7769 25.3223 30.1851V29.0065C25.9184 28.8373 26.4785 28.5617 26.9259 28.1836C27.4459 27.7443 27.8909 27.0914 27.8909 26.271C27.8909 25.7209 27.7738 25.215 27.5169 24.773C27.2603 24.3314 26.9035 24.0213 26.5293 23.8018C25.8596 23.4088 25.0256 23.2546 24.4151 23.1418L24.3512 23.13C23.628 22.9959 23.1632 22.8995 22.8532 22.7238C22.7265 22.6519 22.6708 22.5891 22.6405 22.5384C22.611 22.4892 22.5637 22.3824 22.5637 22.1549C22.5637 21.7488 22.8648 21.0682 24.1319 20.9594C24.7184 20.909 25.1951 21.083 25.539 21.2815C25.7111 21.3808 25.8433 21.4827 25.9287 21.5561C25.971 21.5925 26.0007 21.6208 26.0167 21.6367L26.0297 21.6499C26.4259 22.0822 27.0973 22.1159 27.5349 21.7233C27.9754 21.3282 28.0121 20.6508 27.617 20.2103L26.8427 20.905C27.617 20.2103 27.6173 20.2107 27.617 20.2103L27.6157 20.2089L27.6144 20.2074L27.6113 20.204L27.6039 20.196L27.5841 20.1748C27.5687 20.1586 27.5487 20.138 27.5244 20.1139C27.4758 20.0658 27.4091 20.0029 27.3252 19.9308C27.1582 19.7873 26.9179 19.6031 26.6101 19.4255C26.268 19.2281 25.8344 19.0345 25.3223 18.9181V17.8146Z" fill="url(#paint1_linear_15970_29189)"/>
</g>
<defs>
<linearGradient id="paint0_linear_15970_29189" x1="24" y1="0" x2="24" y2="48" gradientUnits="userSpaceOnUse">
<stop stop-color="#122465"/>
<stop offset="1" stop-color="#122465" stop-opacity="0"/>
</linearGradient>
<linearGradient id="paint1_linear_15970_29189" x1="24" y1="12" x2="24" y2="36" gradientUnits="userSpaceOnUse">
<stop stop-color="#DEE8FF"/>
<stop offset="1" stop-color="#608EFF"/>
</linearGradient>
<clipPath id="clip0_15970_29189">
<rect width="24" height="24" fill="white" transform="translate(12 12)"/>
</clipPath>
</defs>
</svg>
